<svg id="Calque_1" data-name="Calque 1" xmlns="http://www.w3.org/2000/svg" viewBox="0 0 157.12 89.62"><defs><style>.cls-1{fill:#54486e;}.cls-2{font-size:11.54px;fill:#fcc77a;font-family:Montserrat-SemiBold, Montserrat;font-weight:600;letter-spacing:0.13em;}.cls-3{letter-spacing:0.12em;}.cls-4{letter-spacing:0.13em;}</style></defs><title>logo</title><path class="cls-1" d="M117.76,64.93h-85a3.68,3.68,0,0,1,0-7.35h85a3.68,3.68,0,0,1,0,7.35Zm-85-5.15a1.48,1.48,0,1,0,0,2.95h85a1.48,1.48,0,1,0,0-2.95Z"/><path class="cls-1" d="M116,55.74H34.55l-.07-1c-.07-1.06-.1-1.94-.1-2.78a40.89,40.89,0,1,1,81.77,0c0,.85,0,1.73-.1,2.78ZM36.61,53.55h77.31c0-.58,0-1.1,0-1.61a38.7,38.7,0,1,0-77.39,0C36.57,52.44,36.58,53,36.61,53.55Zm72.9-4.5h-8.86l.26-1.3c.15-.79,3.45-19.4-20.29-28.19L74,17.09l7.08.34c.28,0,27.64,1.67,28.43,30.5Zm-6.29-2.19h4c-.57-10.68-5.06-18.49-13.38-23.22a30.19,30.19,0,0,0-3.69-1.78C103.31,30.49,103.53,42.85,103.22,46.86Z"/><path class="cls-1" d="M68.51,10.35l0-1.33A6.74,6.74,0,0,1,82,9l0,1.34-1.32-.24a30.14,30.14,0,0,0-10.88,0Zm6.75-2.93a33.11,33.11,0,0,1,4.32.29,4.53,4.53,0,0,0-8.63,0A33.08,33.08,0,0,1,75.26,7.42Z"/><text class="cls-2" transform="translate(30.97 81.94)">Ch<tspan class="cls-3" x="18.8" y="0">e</tspan><tspan class="cls-4" x="27.11" y="0">f recipes</tspan></text></svg>